HIERARCHY
ROOT Hips
{
  OFFSET 279.157 85.6768 304.565
  CHANNELS 6 Xposition Yposition Zposition Zrotation Xrotation Yrotation
  JOINT LeftUpLeg
  {
    OFFSET 8.64259 1.95398 -2.38835
    CHANNELS 3 Zrotation Xrotation Yrotation
    JOINT LeftLeg
    {
      OFFSET 43.7702 0 0
      CHANNELS 3 Zrotation Xrotation Yrotation
      JOINT LeftFoot
      {
        OFFSET 40.6238 0 0
        CHANNELS 3 Zrotation Xrotation Yrotation
        JOINT LeftToeBase
        {
          OFFSET 12.7242 0 0
          CHANNELS 3 Zrotation Xrotation Yrotation
          End Site
          {
            OFFSET 0 0 0
          }
        }
      }
    }
  }
  JOINT RightUpLeg
  {
    OFFSET -8.2249 1.95398 -2.59336
    CHANNELS 3 Zrotation Xrotation Yrotation
    JOINT RightLeg
    {
      OFFSET 43.5653 0 0
      CHANNELS 3 Zrotation Xrotation Yrotation
      JOINT RightFoot
      {
        OFFSET 40.6238 0 0
        CHANNELS 3 Zrotation Xrotation Yrotation
        JOINT RightToeBase
        {
          OFFSET 12.7242 0 0
          CHANNELS 3 Zrotation Xrotation Yrotation
          End Site
          {
            OFFSET 0 0 0
          }
        }
      }
    }
  }
  JOINT Spine
  {
    OFFSET 0.165834 0.87714 6.61349
    CHANNELS 3 Zrotation Xrotation Yrotation
    JOINT Spine1
    {
      OFFSET 7.38963 1.71661e-005 0
      CHANNELS 3 Zrotation Xrotation Yrotation
      JOINT Spine2
      {
        OFFSET 11.9445 1.14441e-005 0
        CHANNELS 3 Zrotation Xrotation Yrotation
        JOINT Spine3
        {
          OFFSET 14.7254 4.19617e-005 0
          CHANNELS 3 Zrotation Xrotation Yrotation
          JOINT Spine4
          {
            OFFSET 10.9679 0 0
            CHANNELS 3 Zrotation Xrotation Yrotation
            JOINT RightShoulder
            {
              OFFSET 2.46616 -1.6653 3.69651
              CHANNELS 3 Zrotation Xrotation Yrotation
              JOINT RightArm
              {
                OFFSET 13.0012 0 0
                CHANNELS 3 Zrotation Xrotation Yrotation
                JOINT RightForeArm
                {
                  OFFSET 28.7848 1.52588e-005 0
                  CHANNELS 3 Zrotation Xrotation Yrotation
                  JOINT RightHand
                  {
                    OFFSET 26.5688 1.52588e-005 0
                    CHANNELS 3 Zrotation Xrotation Yrotation
                    End Site
                    {
                      OFFSET 0 0 0
                    }
                  }
                }
              }
            }
            JOINT LeftShoulder
            {
              OFFSET 2.38034 -1.29275 -3.7523
              CHANNELS 3 Zrotation Xrotation Yrotation
              JOINT LeftArm
              {
                OFFSET 16.3182 6.10351e-005 0
                CHANNELS 3 Zrotation Xrotation Yrotation
                JOINT LeftForeArm
                {
                  OFFSET 27.0901 0 0
                  CHANNELS 3 Zrotation Xrotation Yrotation
                  JOINT LeftHand
                  {
                    OFFSET 24.5451 1.52588e-005 0
                    CHANNELS 3 Zrotation Xrotation Yrotation
                    End Site
                    {
                      OFFSET 0 0 0
                    }
                  }
                }
              }
            }
            JOINT Neck
            {
              OFFSET 5.0226 -0.0266342 0
              CHANNELS 3 Zrotation Xrotation Yrotation
              JOINT Head
              {
                OFFSET 6.69364 2.86102e-005 0
                CHANNELS 3 Zrotation Xrotation Yrotation
                End Site
                {
                  OFFSET 0 0 0
                }
              }
            }
          }
        }
      }
    }
  }
}
MOTION
Frames:	7
Frame Time:	0.0416667
31.0796 73.799 10.5773 -5.96416 -69.5255 -6.48826 -93.258 64.9963 51.4025 -89.5546 29.5714 -10.1391 89.3869 21.7118 -0.808957 9.11737 -12.4925 3.282 98.501 59.256 131.104 -92.6882 -23.3746 8.3376 87.878 -19.9804 -4.87561 23.2593 -0.441618 13.1637 0.654043 10.3309 -90.7392 6.2162 0.994479 -1.48704 -5.45525 0.928076 -1.52937 -27.9892 1.39539 -1.11944 -7.97651 1.39539 -1.11945 85.9201 -21.6701 -119.413 2.50532 -10.9768 -55.7133 13.306 -44.536 -0.6239 -27.054 -5.39448 11.8328 -93.9679 -35.0924 67.9493 -5.71184 6.72971 -78.9146 -8.75259 54.9865 -0.025427 1.66267 0.438914 10.5117 9.34558 0.424107 -2.0548 -9.63925 0.533293 5.01678 
31.5606 69.0864 9.36927 -7.53692 -70.744 -7.90439 -77.8702 65.2901 36.3682 -100.573 28.3194 -4.17313 91.2447 23.1466 -0.446279 9.21307 -12.4828 3.38414 86.284 59.1696 142.372 -102.424 -23.1437 3.70309 88.9006 -21.5935 -6.41094 23.6938 -0.512467 13.0173 0.655565 10.6836 -90.7311 5.5107 1.00556 -1.46009 -6.16074 0.940342 -1.50292 -28.6949 1.39786 -1.09042 -8.68227 1.39787 -1.09041 86.2168 -20.9275 -119.244 2.01019 -9.95481 -56.2162 13.3051 -44.6031 -0.506581 -27.9554 -5.67425 12.3823 -94.5186 -35.7308 67.2413 -4.53613 5.54953 -78.9191 -8.98688 55.5314 -0.0249311 4.32193 0.872256 12.0278 9.13511 0.419903 -1.36902 -8.96889 0.467294 3.99663 
32.1571 64.3034 8.26636 -9.95233 -72.7881 -10.629 -66.6627 63.6677 25.3331 -110.298 25.6363 0.694918 93.5023 25.0572 -0.108068 9.95009 -12.2598 3.89661 76.4363 58.4911 151.471 -111.466 -20.5983 -0.495637 91.3666 -23.6441 -6.60562 23.7863 -0.557009 13.1599 0.652826 10.9889 -90.6159 4.8999 1.05131 -1.22454 -6.77126 0.996416 -1.26961 -29.3073 1.37072 -0.851985 -9.29461 1.37072 -0.851967 85.6741 -20.8723 -120.468 2.15209 -9.16115 -55.2991 12.709 -43.9242 -0.390565 -29.1094 -5.35963 9.8656 -94.5336 -35.6129 67.1687 -4.77826 4.91228 -78.2068 -8.47179 56.2273 -0.0246917 2.23141 0.51595 10.6311 8.1395 0.493095 -1.60911 -8.71764 0.58813 3.97867 
32.7951 59.3909 7.34698 -13.4994 -75.176 -14.1952 -58.1415 61.5705 17.2373 -118.932 21.5279 4.36149 96.9829 26.7595 -1.47604 11.7058 -11.1663 3.93507 71.1039 56.9745 156.671 -118.769 -16.3881 -3.44968 97.7447 -27.5207 -4.93536 23.3037 -0.400441 12.8712 0.705702 11.2725 -90.5934 4.33318 1.16909 -1.17199 -7.33782 1.11637 -1.22232 -29.8751 1.46725 -0.766429 -9.86244 1.46725 -0.766456 85.743 -20.8298 -120.346 1.6292 -9.3841 -55.1239 12.6712 -43.5053 -1.42336 -28.2965 -5.08915 9.27669 -94.8289 -37.2115 67.2852 -4.06864 5.00767 -78.0634 -8.81545 55.4919 -0.0238495 3.93671 0.764032 11.0563 7.89536 0.347277 -0.831069 -8.71917 0.33817 2.98408 
33.2233 54.4788 6.40775 -18.907 -77.9129 -19.6585 -49.582 58.9047 9.15467 -126.692 17.3872 7.14146 97.7671 27.5431 -0.820454 9.53968 -11.7713 2.30434 66.2598 55.1771 161.872 -124.991 -10.9142 -5.65248 103.438 -30.5612 -2.95053 22.5938 -0.0346103 11.7214 0.768335 11.5304 -90.5286 3.81752 1.32277 -1.03641 -7.8532 1.27587 -1.09363 -30.3924 1.57308 -0.590901 -10.3798 1.57308 -0.590902 85.5454 -21.5806 -120.281 0.845049 -10.0959 -55.52 13.3194 -44.5413 -0.604943 -28.6688 -5.46784 10.6816 -94.7639 -37.1451 67.3689 -4.57639 5.5947 -77.603 -9.20414 56.5886 -0.0245573 4.75023 0.906067 11.5597 7.87903 0.187186 -1.6146 -8.75188 0.316469 3.42624 
33.4394 49.9201 5.28209 -25.8743 -80.8593 -26.5972 -44.3672 56.3232 2.82726 -132.392 11.4574 8.7659 100.393 28.9786 -1.2457 10.7921 -11.7891 4.03697 61.5694 52.8556 168.206 -130.28 -3.07812 -7.18517 105.887 -31.6207 -2.33078 22.5335 0.133553 10.8715 0.801231 11.7632 -90.5062 3.35194 1.39938 -0.983173 -8.31868 1.35476 -1.04382 -30.8588 1.63015 -0.517099 -10.8462 1.63015 -0.517082 85.4822 -21.3234 -120.586 1.45176 -10.5055 -55.1658 13.14 -45.1009 -1.0585 -32.1893 -6.44616 12.0545 -94.6544 -36.9924 67.4966 -6.37279 6.66841 -77.2585 -9.23106 58.252 -0.0259481 9.01447 1.61144 12.5854 7.52522 0.027911 -1.86246 -8.55424 0.231888 3.08469 
33.4111 46.2245 4.30535 -36.4074 -84.2229 -37.0075 -41.3289 54.6572 -2.1911 -136.417 7.2134 9.5794 99.479 28.533 -0.38991 12.2128 -11.6084 5.63403 59.3116 51.1376 172.468 -133.691 4.42548 -8.03516 106.633 -31.8167 -2.38423 22.9947 0.234646 9.673 0.809589 12.0729 -90.5502 2.73265 1.40119 -1.05655 -8.93801 1.35334 -1.1172 -31.4779 1.65393 -0.586519 -11.4653 1.65393 -0.58653 86.0691 -20.0307 -120.16 3.81009 -10.5507 -55.5409 13.5729 -46.2677 -0.615266 -33.4162 -7.42867 14.8955 -94.346 -36.9328 67.9993 -7.12781 8.06192 -77.5181 -9.69403 56.6519 -0.0252171 11.8162 2.39808 15.4292 7.23672 -0.239184 -1.48259 -7.63231 -0.0687089 2.70451 
